<svg width="309" height="309" viewBox="0 0 309 309" fill="none" xmlns="http://www.w3.org/2000/svg">
<path d="M75.8131 5.47252C65.1665 2.5302 54.1505 8.77576 51.2082 19.4224L50.0983 23.4383L164.637 30.0202L75.8131 5.47252Z" fill="#AB3A1C"/>
<path d="M5.47253 232.338C2.53021 242.985 8.77576 254.001 19.4224 256.943L23.4383 258.053L30.0114 143.545L5.47253 232.338Z" fill="#AB3A1C"/>
<path d="M256.943 288.729C254.001 299.375 242.985 305.621 232.338 302.678L143.514 278.131L258.053 284.713L256.943 288.729Z" fill="#AB3A1C"/>
<path d="M302.678 75.8131C305.621 65.1665 299.375 54.1505 288.729 51.2082L284.713 50.0983L278.131 164.637L302.678 75.8131Z" fill="#AB3A1C"/>
<rect x="16.8794" y="41.4264" width="251.048" height="251.048" rx="20" transform="rotate(-5.61125 16.8794 41.4264)" fill="#F2F2F2"/>
<rect x="3.07559" y="60.7394" width="251.048" height="251.048" rx="20" transform="rotate(-13.279 3.07559 60.7394)" fill="#E44D26"/>
<path d="M117.021 212.922L100.558 216.717L81.839 135.518C81.3406 133.356 81.2729 131.117 81.6398 128.929C82.0067 126.741 82.8009 124.646 83.9773 122.765C85.1536 120.884 86.6889 119.253 88.4955 117.965C90.3022 116.677 92.3448 115.758 94.5068 115.26L192.169 92.7453C194.331 92.2469 196.57 92.1792 198.758 92.5461C200.946 92.913 203.04 93.7072 204.922 94.8835C206.803 96.0599 208.434 97.5952 209.722 99.4018C211.009 101.208 211.929 103.251 212.427 105.413L216.222 121.876C216.721 124.038 216.789 126.277 216.422 128.465C216.055 130.653 215.26 132.748 214.084 134.629C212.908 136.51 211.373 138.141 209.566 139.429L240.221 184.52L222.563 188.591L192.71 144.634L170.629 149.725L181.757 197.998L165.294 201.793L154.166 153.52L150.37 137.057L191.528 127.569C192.609 127.32 193.63 126.86 194.533 126.216C195.437 125.572 196.204 124.757 196.793 123.816C197.381 122.876 197.778 121.828 197.961 120.734C198.145 119.64 198.111 118.521 197.862 117.44C197.613 116.359 197.153 115.338 196.509 114.434C195.865 113.531 195.05 112.763 194.109 112.175C193.168 111.587 192.121 111.19 191.027 111.006C189.934 110.823 188.815 110.857 187.735 111.105L187.733 111.106L98.302 131.723L102.097 148.186L135.023 140.595L138.819 157.058L105.893 164.649L117.021 212.922Z" fill="#F2F2F2"/>
</svg>
