<svg width="824" height="309" viewBox="0 0 824 309" fill="none" xmlns="http://www.w3.org/2000/svg">
<rect x="824" y="203.538" width="8.5406" height="450" transform="rotate(90 824 203.538)" fill="#181818"/>
<path d="M823.86 194.997H805.223L785.46 144.048H762.154V194.997H744.779V144.048L744.779 126.673L788.218 126.673C789.359 126.673 790.489 126.448 791.543 126.011C792.597 125.575 793.554 124.935 794.361 124.128C795.168 123.321 795.808 122.364 796.244 121.31C796.681 120.256 796.906 119.126 796.906 117.985C796.906 116.844 796.681 115.714 796.244 114.66C795.808 113.606 795.168 112.648 794.361 111.842C793.554 111.035 792.597 110.395 791.543 109.958C790.489 109.522 789.359 109.297 788.218 109.297L744.779 109.297L744.779 91.9215L796.906 91.9214C799.188 91.9214 801.447 92.3709 803.555 93.2441C805.663 94.1173 807.579 95.3972 809.192 97.0107C810.806 98.6242 812.086 100.54 812.959 102.648C813.832 104.756 814.281 107.015 814.281 109.297V126.673C814.281 128.955 813.832 131.214 812.959 133.322C812.086 135.43 810.806 137.346 809.192 138.959C807.579 140.573 805.663 141.853 803.555 142.726L823.86 194.997Z" fill="#181818"/>
<path fill-rule="evenodd" clip-rule="evenodd" d="M666.736 177.622L666.736 160.246C666.736 157.964 667.185 155.705 668.058 153.597C668.931 151.489 670.211 149.573 671.825 147.96C673.438 146.346 675.354 145.066 677.462 144.193C679.57 143.32 681.829 142.87 684.111 142.87L718.863 142.87L718.863 125.495L666.736 125.495L666.736 108.119L718.863 108.119C721.144 108.119 723.404 108.569 725.512 109.442C727.62 110.315 729.536 111.595 731.149 113.208C732.762 114.822 734.042 116.737 734.916 118.845C735.789 120.953 736.238 123.213 736.238 125.495L736.238 194.997H718.863L684.111 194.997C681.829 194.997 679.57 194.548 677.462 193.675C675.354 192.801 673.438 191.522 671.825 189.908C670.211 188.295 668.931 186.379 668.058 184.271C667.185 182.163 666.736 179.904 666.736 177.622ZM684.111 177.622L684.111 160.246H718.863L718.863 177.622L684.111 177.622Z" fill="#181818"/>
<path d="M590.845 114.893L615.198 177.65L639.55 114.893H658.195L631.251 184.271C630.377 186.379 629.098 188.295 627.484 189.908C625.871 191.522 623.955 192.802 621.847 193.675C619.739 194.548 617.479 194.997 615.198 194.997C612.916 194.997 610.656 194.548 608.548 193.675C606.44 192.802 604.525 191.522 602.911 189.908C601.298 188.295 600.018 186.379 599.145 184.271L572.2 114.893H590.845Z" fill="#181818"/>
<path fill-rule="evenodd" clip-rule="evenodd" d="M563.66 125.495V142.87C563.66 145.152 563.21 147.412 562.337 149.52C561.464 151.628 560.184 153.543 558.57 155.157C556.957 156.77 555.042 158.05 552.933 158.923C550.825 159.797 548.566 160.246 546.284 160.246L511.533 160.246L511.533 177.622H563.66V194.997H511.533C509.251 194.997 506.991 194.548 504.883 193.675C502.775 192.802 500.86 191.522 499.246 189.908C497.633 188.295 496.353 186.379 495.48 184.271C494.607 182.163 494.157 179.904 494.157 177.622V125.495C494.157 123.213 494.607 120.954 495.48 118.845C496.353 116.737 497.633 114.822 499.246 113.208C500.86 111.595 502.775 110.315 504.883 109.442C506.991 108.569 509.251 108.119 511.533 108.119L546.284 108.119C548.566 108.119 550.825 108.569 552.933 109.442C555.042 110.315 556.957 111.595 558.57 113.208C560.184 114.822 561.464 116.737 562.337 118.845C563.21 120.954 563.66 123.213 563.66 125.495ZM546.284 125.495V142.87L511.533 142.87L511.533 125.495L546.284 125.495Z" fill="#181818"/>
<path d="M485.617 194.997V177.622H468.241V91.9214H450.865V177.622C450.865 179.904 451.315 182.163 452.188 184.271C453.061 186.379 454.341 188.295 455.954 189.908C457.568 191.522 459.483 192.802 461.591 193.675C463.7 194.548 465.959 194.997 468.241 194.997H485.617Z" fill="#181818"/>
<path d="M391.376 194.997H374V109.297C374 107.015 374.449 104.756 375.323 102.648C376.196 100.54 377.476 98.6241 379.089 97.0107C380.703 95.3972 382.618 94.1173 384.726 93.2441C386.834 92.3709 389.094 91.9214 391.376 91.9214L442.325 91.9214V109.297L391.376 109.297L391.376 126.673L426.127 126.673V144.048H391.376V194.997Z" fill="#181818"/>
<path d="M75.8131 5.47252C65.1665 2.5302 54.1505 8.77576 51.2082 19.4224L50.0983 23.4383L164.637 30.0202L75.8131 5.47252Z" fill="#AB3A1C"/>
<path d="M5.47253 232.338C2.53021 242.985 8.77576 254.001 19.4224 256.943L23.4383 258.053L30.0114 143.545L5.47253 232.338Z" fill="#AB3A1C"/>
<path d="M256.943 288.729C254.001 299.375 242.985 305.621 232.338 302.678L143.514 278.131L258.053 284.713L256.943 288.729Z" fill="#AB3A1C"/>
<path d="M302.678 75.8131C305.621 65.1665 299.375 54.1505 288.729 51.2082L284.713 50.0983L278.131 164.637L302.678 75.8131Z" fill="#AB3A1C"/>
<rect x="16.8794" y="41.4264" width="251.048" height="251.048" rx="20" transform="rotate(-5.61125 16.8794 41.4264)" fill="#F2F2F2"/>
<rect x="3.07559" y="60.7393" width="251.048" height="251.048" rx="20" transform="rotate(-13.279 3.07559 60.7393)" fill="#E44D26"/>
<path d="M117.021 212.922L100.558 216.717L81.839 135.518C81.3406 133.356 81.2729 131.117 81.6398 128.929C82.0067 126.741 82.8009 124.646 83.9773 122.765C85.1536 120.884 86.6889 119.253 88.4955 117.965C90.3022 116.677 92.3448 115.758 94.5068 115.26L192.169 92.7453C194.331 92.2469 196.57 92.1792 198.758 92.5461C200.946 92.913 203.04 93.7072 204.922 94.8836C206.803 96.0599 208.434 97.5952 209.722 99.4018C211.009 101.208 211.929 103.251 212.427 105.413L216.222 121.876C216.721 124.038 216.789 126.277 216.422 128.465C216.055 130.653 215.26 132.748 214.084 134.629C212.908 136.51 211.373 138.141 209.566 139.429L240.221 184.52L222.563 188.591L192.71 144.634L170.629 149.725L181.757 197.998L165.294 201.793L154.166 153.52L150.37 137.057L191.528 127.569C192.609 127.32 193.63 126.86 194.533 126.216C195.437 125.572 196.204 124.757 196.793 123.816C197.381 122.876 197.778 121.828 197.961 120.734C198.145 119.64 198.111 118.521 197.862 117.44C197.613 116.359 197.153 115.338 196.509 114.434C195.865 113.531 195.05 112.763 194.109 112.175C193.168 111.587 192.121 111.19 191.027 111.006C189.934 110.823 188.815 110.857 187.735 111.105L187.733 111.106L98.302 131.723L102.097 148.186L135.023 140.595L138.819 157.058L105.893 164.649L117.021 212.922Z" fill="#F2F2F2"/>
</svg>
